<svg width="130" height="37" viewBox="0 0 130 37" fill="none" xmlns="http://www.w3.org/2000/svg">
<path d="M54.8183 13.7951H50.4965V35.5942H45.5573V13.7951H41.9954V9.28332H45.5573V0.449707H50.4965V9.28332H54.8183V13.7951Z" fill="black"/>
<path d="M83.7101 22.1063C83.7101 22.9295 83.6626 23.7527 83.5676 24.5759H61.7686C62.2752 26.6656 63.3042 28.3911 64.8556 29.7526C66.4387 31.0824 68.2909 31.7473 70.4122 31.7473C71.9636 31.7473 73.4201 31.3515 74.7815 30.56C76.1746 29.7684 77.2195 28.6919 77.916 27.3305H82.8553C81.8421 30.0217 80.1957 32.1905 77.916 33.837C75.6364 35.4517 73.0718 36.2591 70.2222 36.2591C66.5178 36.2591 63.3517 34.8818 60.7237 32.1272C58.1275 29.3727 56.8294 26.1273 56.8294 22.3913C56.8294 18.5602 58.1275 15.299 60.7237 12.6078C63.32 9.91655 66.5178 8.57093 70.3172 8.57093C74.0217 8.57093 77.172 9.90072 79.7682 12.5603C82.3962 15.2199 83.7101 18.4019 83.7101 22.1063ZM78.7709 20.7765C78.6443 18.6235 77.7261 16.803 76.0163 15.3149C74.3383 13.8268 72.4227 13.0827 70.2697 13.0827C68.1167 13.0827 66.1854 13.8268 64.4757 15.3149C62.7976 16.803 61.8952 18.6235 61.7686 20.7765H78.7709Z" fill="black"/>
<path d="M100.029 13.6526C98.7938 13.6526 97.6065 13.9692 96.4667 14.6025C94.5353 15.584 93.5696 17.7845 93.5696 21.2039V35.5942H88.6304V9.28332H93.2372V11.6579H93.3322C94.7253 9.69492 96.9575 8.66591 100.029 8.57093V13.6526Z" fill="black"/>
<path d="M129.023 22.1063C129.023 22.9295 128.975 23.7527 128.88 24.5759H107.081C107.588 26.6656 108.617 28.3911 110.168 29.7526C111.751 31.0824 113.604 31.7473 115.725 31.7473C117.276 31.7473 118.733 31.3515 120.094 30.56C121.487 29.7684 122.532 28.6919 123.229 27.3305H128.168C127.155 30.0217 125.508 32.1905 123.229 33.837C120.949 35.4517 118.384 36.2591 115.535 36.2591C111.831 36.2591 108.664 34.8818 106.036 32.1272C103.44 29.3727 102.142 26.1273 102.142 22.3913C102.142 18.5602 103.44 15.299 106.036 12.6078C108.633 9.91655 111.831 8.57093 115.63 8.57093C119.334 8.57093 122.485 9.90072 125.081 12.5603C127.709 15.2199 129.023 18.4019 129.023 22.1063ZM124.084 20.7765C123.957 18.6235 123.039 16.803 121.329 15.3149C119.651 13.8268 117.735 13.0827 115.582 13.0827C113.429 13.0827 111.498 13.8268 109.788 15.3149C108.11 16.803 107.208 18.6235 107.081 20.7765H124.084Z" fill="black"/>
<path d="M1.78784 11.4526L5.19312 14.8765L5.25854 14.9419L5.23511 15.0308C4.95053 16.1158 4.80739 17.255 4.80737 18.4312C4.80737 25.9463 10.9165 32.0552 18.45 32.0552C25.9651 32.055 32.074 25.9464 32.074 18.4312C32.074 17.2734 31.9309 16.1522 31.6462 15.0669L31.6228 14.9771L31.6882 14.9126L35.0935 11.4888L35.2644 11.3169L35.3572 11.5405C36.23 13.6681 36.7019 15.9956 36.7019 18.4312C36.7019 28.5029 28.5031 36.7017 18.4314 36.7017C8.35979 36.7015 0.160889 28.5028 0.160889 18.4312C0.16092 15.9769 0.651843 13.6499 1.52417 11.5054L1.61597 11.2798L1.78784 11.4526ZM18.4314 0.160645C24.4492 0.160645 29.7944 3.08787 33.1208 7.57764L33.2029 7.68896L33.1052 7.7876L29.8669 11.0259L29.7585 10.8628C27.7569 7.8776 24.6021 5.7117 20.9265 5.02881L20.5691 4.96729C19.8749 4.86051 19.1622 4.80713 18.4314 4.80713C17.7006 4.80714 16.9879 4.85951 16.2937 4.96631L16.2947 4.96729C12.4841 5.5727 9.18887 7.76311 7.1228 10.8442L7.01343 11.0073L6.87573 10.8687L3.77612 7.77002L3.67749 7.67139L3.7605 7.56006C7.08709 3.07007 12.4319 0.160722 18.4314 0.160645Z" fill="black" stroke="black" stroke-width="0.321949"/>
<path d="M20.7607 19.022H16.1143L16.1143 1.92334L20.7607 1.92334L20.7607 19.022Z" fill="black" stroke="black" stroke-width="0.321949"/>
</svg>
